<svg width="40" height="40" viewBox="0 0 40 40" fill="none" xmlns="http://www.w3.org/2000/svg">
<path d="M5.91366 16.2251C6.66012 13.4389 8.21606 10.9367 10.3847 9.03483C12.5533 7.13297 15.2373 5.91693 18.097 5.5405C20.9568 5.16407 23.864 5.64416 26.4509 6.92006C29.0378 8.19595 31.1883 10.2103 32.6303 12.7085L33.1887 13.9735M33.1887 13.9735C33.5784 13.9091 33.9326 13.7083 34.1881 13.407C34.4436 13.1058 34.5838 12.7235 34.5837 12.3285V5.4168M33.1887 13.9735C33.0998 13.9879 33.0092 13.9951 32.917 13.9951H26.0053M5.41699 34.5835V27.6718C5.41699 27.2298 5.59259 26.8059 5.90515 26.4933C6.21771 26.1807 6.64163 26.0051 7.08366 26.0051M7.08366 26.0051H13.9953M7.08366 26.0051L7.37033 27.2918C8.81235 29.7899 10.9628 31.8043 13.5497 33.0802C16.1366 34.3561 19.0438 34.8362 21.9036 34.4598C24.7634 34.0833 27.4473 32.8673 29.616 30.9654C31.7846 29.0636 33.3405 26.5613 34.087 23.7751" stroke="#4F6A97" stroke-width="2.5" stroke-linecap="round" stroke-linejoin="round"/>
</svg>
