<svg width="1372" height="108" viewBox="0 0 1372 108" fill="none" xmlns="http://www.w3.org/2000/svg">
<g opacity="0.1">
<rect y="30.5" width="20" height="125" rx="10" fill="white"/>
<rect x="52" y="61.5" width="20" height="63" rx="10" fill="white"/>
<rect x="104" y="41.5" width="20" height="103" rx="10" fill="white"/>
<rect x="156" y="51.5" width="20" height="83" rx="10" fill="white"/>
<rect x="208" width="20" height="186" rx="10" fill="white"/>
<rect x="260" y="10" width="20" height="166" rx="10" fill="white"/>
<rect x="312" y="56.5" width="20" height="73" rx="10" fill="white"/>
<rect x="364" y="30.5" width="20" height="125" rx="10" fill="white"/>
<rect x="416" y="61.5" width="20" height="63" rx="10" fill="white"/>
<rect x="468" y="30.5" width="20" height="125" rx="10" fill="white"/>
<rect x="520" y="61.5" width="20" height="63" rx="10" fill="white"/>
<rect x="572" y="41.5" width="20" height="103" rx="10" fill="white"/>
<rect x="624" y="51.5" width="20" height="83" rx="10" fill="white"/>
<rect x="676" width="20" height="186" rx="10" fill="white"/>
<rect x="728" y="10" width="20" height="166" rx="10" fill="white"/>
<rect x="780" y="56.5" width="20" height="73" rx="10" fill="white"/>
<rect x="832" y="30.5" width="20" height="125" rx="10" fill="white"/>
<rect x="884" y="61.5" width="20" height="63" rx="10" fill="white"/>
<rect x="936" y="30.5" width="20" height="125" rx="10" fill="white"/>
<rect x="988" y="61.5" width="20" height="63" rx="10" fill="white"/>
<rect x="1040" y="41.5" width="20" height="103" rx="10" fill="white"/>
<rect x="1092" y="51.5" width="20" height="83" rx="10" fill="white"/>
<rect x="1144" width="20" height="186" rx="10" fill="white"/>
<rect x="1196" y="10" width="20" height="166" rx="10" fill="white"/>
<rect x="1248" y="56.5" width="20" height="73" rx="10" fill="white"/>
<rect x="1300" y="30.5" width="20" height="125" rx="10" fill="white"/>
<rect x="1352" y="61.5" width="20" height="63" rx="10" fill="white"/>
</g>
</svg>
