<svg width="44" height="44" viewBox="0 0 44 44" fill="none" xmlns="http://www.w3.org/2000/svg">
<path d="M6.50532 17.8476C7.32642 14.7828 9.03795 12.0303 11.4235 9.93824C13.809 7.84619 16.7613 6.50855 19.907 6.09448C23.0528 5.68041 26.2507 6.20851 29.0963 7.61199C31.9419 9.01548 34.3074 11.2313 35.8937 13.9792L36.5078 15.3707M36.5078 15.3707C36.9366 15.2999 37.3262 15.0791 37.6072 14.7477C37.8883 14.4163 38.0425 13.9958 38.0423 13.5612V5.95841M36.5078 15.3707C36.41 15.3866 36.3104 15.3946 36.209 15.3946H28.6062M5.95898 38.0417V30.4389C5.95898 29.9527 6.15214 29.4864 6.49596 29.1425C6.83977 28.7987 7.30609 28.6056 7.79232 28.6056M7.79232 28.6056H15.3952M7.79232 28.6056L8.10765 30.0209C9.69388 32.7688 12.0594 34.9847 14.905 36.3882C17.7506 37.7916 20.9485 38.3197 24.0943 37.9057C27.24 37.4916 30.1924 36.154 32.5779 34.0619C34.9634 31.9699 36.6749 29.2174 37.496 26.1526" stroke="white" stroke-width="2.75" stroke-linecap="round" stroke-linejoin="round"/>
</svg>
