<svg width="84" height="40" viewBox="0 0 84 40" fill="none" xmlns="http://www.w3.org/2000/svg">
<path d="M2 0.833496H5.33333V38.3335H2V0.833496Z" fill="#031019"/>
<rect x="8.66699" y="10.8335" width="3.33333" height="20" fill="#031019"/>
<path d="M15.7863 30.4068V15.6853C15.7863 13.8839 15.73 12.4202 15.6737 11.1253H18.7137L18.8826 13.2365H18.9389C19.9522 11.6883 21.5566 10.8157 23.6396 10.8157C26.7922 10.8157 29.41 13.5179 29.41 17.7965C29.41 22.7505 26.2855 25.1431 23.1611 25.1431C21.444 25.1431 20.0085 24.4113 19.3048 23.3135H19.2485V30.4068H15.7863ZM19.2485 16.9802V19.0913C19.2485 19.4291 19.2766 19.7387 19.3329 20.0483C19.6989 21.4557 20.9092 22.4691 22.4011 22.4691C24.5966 22.4691 25.8915 20.6394 25.8915 17.9372C25.8915 15.5165 24.7092 13.5461 22.4855 13.5461C21.05 13.5461 19.727 14.5876 19.3611 16.1076C19.3048 16.3891 19.2485 16.6987 19.2485 16.9802Z" fill="#031019"/>
<path d="M31.52 24.1861L32.1111 22.3283C32.8711 22.7787 34.1659 23.2853 35.4044 23.2853C37.1778 23.2853 38.0222 22.4128 38.0222 21.2587C38.0222 20.0765 37.3185 19.4572 35.517 18.7816C33.04 17.8809 31.8859 16.5579 31.8859 14.9253C31.8859 12.7298 33.6874 10.9283 36.5867 10.9283C37.9659 10.9283 39.1763 11.2942 39.9081 11.7728L39.317 13.5742C38.7822 13.2365 37.797 12.7579 36.5304 12.7579C35.0667 12.7579 34.2785 13.6024 34.2785 14.6157C34.2785 15.7416 35.0667 16.2483 36.84 16.952C39.1763 17.8246 40.4148 19.0068 40.4148 21.0335C40.4148 23.4542 38.5289 25.1431 35.3481 25.1431C33.8563 25.1431 32.477 24.7491 31.52 24.1861ZM41.8077 11.2098H44.5099L47.4655 19.2602C47.8032 20.1609 48.141 21.2305 48.3662 22.0468H48.4225C48.6758 21.2305 48.9573 20.1891 49.2951 19.2039L51.9973 11.2098H54.6151L50.8995 20.9209C49.1262 25.5935 47.9158 27.9579 46.227 29.4498C44.9884 30.4913 43.8062 30.9135 43.187 31.0261L42.5677 28.9713C43.187 28.7742 44.0032 28.3802 44.7351 27.7609C45.4107 27.2261 46.227 26.2691 46.8181 25.0024C46.9307 24.7491 47.0151 24.552 47.0151 24.4113C47.0151 24.2705 46.9588 24.0735 46.8181 23.7639L41.8077 11.2098ZM56.8586 24.8335V14.8972C56.8586 13.4616 56.8305 12.3357 56.746 11.2098H58.9416L59.0823 13.4616H59.1386C59.8142 12.195 61.3905 10.9283 63.6423 10.9283C65.5282 10.9283 68.4556 12.0542 68.4556 16.7268V24.8335H65.9786V16.9802C65.9786 14.7846 65.1623 12.955 62.826 12.955C61.2216 12.955 59.9549 14.1091 59.5045 15.4883C59.3919 15.7979 59.3356 16.2202 59.3356 16.6424V24.8335H56.8586ZM81.7609 22.4972L82.1831 24.355C81.5357 24.6646 80.1002 25.1431 78.2705 25.1431C74.1609 25.1431 71.4868 22.3565 71.4868 18.1905C71.4868 13.9965 74.3579 10.9283 78.8054 10.9283C80.2691 10.9283 81.5639 11.2942 82.2394 11.6602L81.6765 13.5461C81.0854 13.2365 80.1565 12.8987 78.8054 12.8987C75.6809 12.8987 73.992 15.235 73.992 18.0498C73.992 21.2024 76.0187 23.1446 78.7209 23.1446C80.1283 23.1446 81.0572 22.8068 81.7609 22.4972Z" fill="#A5A5A5"/>
</svg>
