<svg width="240" height="80" viewBox="0 0 240 80" fill="none" xmlns="http://www.w3.org/2000/svg">
<g style="mix-blend-mode:overlay">
<rect y="13.5" width="6" height="53" rx="3" fill="#031019"/>
<rect x="18" y="26.5" width="6" height="27" rx="3" fill="#031019"/>
<rect x="36" y="17.5" width="6" height="45" rx="3" fill="#031019"/>
<rect x="54" y="22.5" width="6" height="35" rx="3" fill="#031019"/>
<rect x="72" width="6" height="80" rx="3" fill="#031019"/>
<rect x="90" y="4.5" width="6" height="71" rx="3" fill="#031019"/>
<rect x="108" y="24.5" width="6" height="31" rx="3" fill="#031019"/>
<rect x="126" y="13.5" width="6" height="53" rx="3" fill="#031019"/>
<rect x="144" y="26.5" width="6" height="27" rx="3" fill="#031019"/>
<rect x="162" y="13.5" width="6" height="53" rx="3" fill="#031019"/>
<rect x="180" y="26.5" width="6" height="27" rx="3" fill="#031019"/>
<rect x="198" y="17.5" width="6" height="45" rx="3" fill="#031019"/>
<rect x="216" y="22.5" width="6" height="35" rx="3" fill="#031019"/>
<rect x="234" width="6" height="80" rx="3" fill="#031019"/>
</g>
</svg>
